<?xml version="1.0" encoding="UTF-8"?>
<svg version="1.1" xmlns="http://www.w3.org/2000/svg" width="1000" height="1000">
<path d="M0 0 C2.67929413 1.06604719 5.04569192 2.14342923 7.5625 3.5 C8.26084961 3.8616626 8.95919922 4.2233252 9.67871094 4.59594727 C14.11270159 6.9160002 18.43636758 9.40036945 22.75 11.9375 C75.13344744 42.26162962 142.4312741 53.25379544 202 58 C202.88284668 58.07154297 203.76569336 58.14308594 204.67529297 58.21679688 C221.49173067 59.39689777 236.58670155 54.31282503 252.47924805 49.37866211 C271.14647723 43.58948866 289.94988757 39.31184834 309.25 36.25 C310.49064209 36.05132324 311.73128418 35.85264648 313.00952148 35.64794922 C333.3227903 32.56630025 353.4689925 31.62305257 374 31.6875 C375.20855652 31.68932281 376.41711304 31.69114563 377.66229248 31.69302368 C395.95923735 31.7394212 413.88246181 32.25937476 432 35 C433.76923828 35.25740967 433.76923828 35.25740967 435.57421875 35.52001953 C461.36982422 39.35440881 486.30814477 45.9481745 511.16308594 53.71166992 C511.84096161 53.92229568 512.51883728 54.13292145 513.21725464 54.34992981 C515.05727522 54.92282417 516.89564309 55.50101914 518.73388672 56.07958984 C533.90867744 60.35593616 550.47439778 57.70854143 565.875 55.875 C566.82787903 55.76395935 567.78075806 55.6529187 568.76251221 55.53851318 C625.65316019 48.87715786 680.09440269 35.71312165 731.29223633 9.39428711 C748.61312297 0.49713159 748.61312297 0.49713159 758 1 C774.12587026 36.62231176 768.89912883 80.9530861 757 117 C756.77086914 117.70769531 756.54173828 118.41539062 756.30566406 119.14453125 C750.98456612 135.3008983 742.71547773 150.07055498 733.03125 163.99609375 C731.4697781 166.30527047 730.14373226 168.47011397 729 171 C729.845625 170.71125 730.69125 170.4225 731.5625 170.125 C746.48351648 165.24175824 746.48351648 165.24175824 752 168 C754.57238271 176.45211462 750.09791273 184.08683855 746.3125 191.5625 C740.25510242 202.11796508 732.27869237 208.6011068 722.16015625 214.96875 C719.04617646 216.81216308 719.04617646 216.81216308 717 219 C717.27561768 219.5355249 717.55123535 220.0710498 717.83520508 220.62280273 C766.5818271 315.7344864 781.77951741 423.4611172 750.15234375 563.46875 C735.44520664 608.53740066 713.10519514 652.18658203 683 689 C682.2471875 689.94230469 681.494375 690.88460937 680.71875 691.85546875 C676.41809798 697.19446312 671.96147005 702.3582387 667.3359375 707.41796875 C665.45264529 709.49966799 663.61624766 711.60736027 661.78515625 713.734375 C657.73546834 718.3716583 653.4255139 722.72157731 649.0625 727.0625 C647.92264648 728.2081543 647.92264648 728.2081543 646.75976562 729.37695312 C642.00347562 734.12511966 637.12187334 738.64976679 632 743 C631.35828857 743.54841553 630.71657715 744.09683105 630.05541992 744.66186523 C619.77684944 753.38948544 609.18027242 761.46445495 598 769 C597.32001953 769.45971191 596.64003906 769.91942383 595.93945312 770.39306641 C544.201313 805.15231736 485.51753347 826.76541746 424 836 C423.03063507 836.14565399 423.03063507 836.14565399 422.04168701 836.29425049 C334.75497052 849.29034911 242.26625561 826.35261017 137.99560547 760.32373047 C130.7056881 754.87148286 123.78408587 749.06519839 117 743 C116.09894531 742.19820312 115.19789063 741.39640625 114.26953125 740.5703125 C112.62790315 739.09921011 110.99093195 737.62288915 109.359375 736.140625 C107.75320979 734.68337577 106.13823378 733.23579222 104.515625 731.796875 C95.77625832 724.03458037 87.58387408 715.89353908 80 707 C79.15179688 706.0409375 78.30359375 705.081875 77.4296875 704.09375 C58.56083413 682.6572893 42.82436803 658.94418696 29 634 C28.54915039 633.19014648 28.09830078 632.38029297 27.63378906 631.54589844 C1.11397609 583.53167353 -13.50984315 530.22748097 -20 476 C-20.18006592 474.56527344 -20.18006592 474.56527344 -20.36376953 473.1015625 C-23.97297299 443.41035072 -23.63852047 411.68162626 -20 382 C-19.87109375 380.91654297 -19.7421875 379.83308594 -19.609375 378.71679688 C-13.08578734 325.35022558 3.74102634 275.57107349 27.39379883 227.53881836 C27.86841553 226.57210205 28.34303223 225.60538574 28.83203125 224.609375 C29.25202393 223.76342773 29.6720166 222.91748047 30.10473633 222.04589844 C31.13362922 220.06682483 31.13362922 220.06682483 31 218 C28.8389582 216.50135798 26.68064502 215.11502445 24.4375 213.75 C11.88765935 205.83103334 2.28351682 196.26268836 -2.421875 181.71875 C-3.39102535 177.16112405 -3.52089778 172.62830484 -3 168 C-1.47728009 166.47728009 -0.12064841 166.79418018 2 166.75 C6.43475768 166.77125283 9.96438008 167.79208874 14.0546875 169.44140625 C16.18656479 170.25213252 16.18656479 170.25213252 19 169 C18.56429687 168.52691406 18.12859375 168.05382812 17.6796875 167.56640625 C-2.8620278 144.757099 -14.57648428 111.33000144 -17 81 C-17.08612549 79.94603027 -17.17225098 78.89206055 -17.26098633 77.80615234 C-17.94299978 68.66850814 -18.18627784 59.58149788 -18.18530273 50.42138672 C-18.18749177 48.13360017 -18.20575334 45.84629602 -18.22460938 43.55859375 C-18.25486426 35.95005106 -18.00437912 28.4342288 -17.17578125 20.8671875 C-17.10642868 20.19342072 -17.03707611 19.51965393 -16.96562195 18.82546997 C-16.21275963 12.71313843 -14.86158451 6.34886648 -10.25 2 C-6.31236832 -0.42315796 -4.56799131 -0.41656294 0 0 Z M9 62 C10 64 10 64 10 64 Z M738 59 C737.00717174 60.18015434 736.05817734 61.39713508 735.125 62.625 C734.17173828 63.86056641 734.17173828 63.86056641 733.19921875 65.12109375 C732.06783865 66.60213661 730.93716274 68.08377435 729.81884766 69.57470703 C719.72883278 83.01876555 708.34834612 94.74023396 695 105 C694.44183594 105.43989258 693.88367188 105.87978516 693.30859375 106.33300781 C653.26910455 137.87599634 606.41776752 153.49487236 558.88172913 169.78382874 C495.5998024 191.33755506 495.5998024 191.33755506 441 229 C440.31808594 229.61101562 439.63617187 230.22203125 438.93359375 230.8515625 C428.95814831 240.24838581 421.67459038 252.15552952 415 264 C414.62488281 264.65452148 414.24976563 265.30904297 413.86328125 265.98339844 C396.34063338 296.7377386 384.9815573 335.01384368 384.75 370.5 C384.7190625 371.68529297 384.7190625 371.68529297 384.6875 372.89453125 C384.63353321 381.13795769 386.54216449 387.85059739 391.875 394.25 C413.05240748 421.38997852 436.81892653 458.4884378 432.49609375 494.3671875 C428.14913596 526.98593711 404.1469879 569.96355973 378 591 C375.57965773 592.59702912 374.41465184 593.02199401 371.49609375 592.8671875 C352.72409223 586.34545927 332.39633459 543.98688365 323.88427734 526.73925781 C313.23774038 503.97072647 312.06654711 479.00130037 318.890625 454.84765625 C325.61065379 436.96937069 338.31613293 420.79512183 348.94377136 405.04830933 C349.75785803 403.83685452 350.56731128 402.62227282 351.37202454 401.40457153 C353.38769741 398.35733621 355.44833693 395.37952188 357.65087891 392.46386719 C362.79401937 385.46224367 364.97958927 380.39202582 363.64208984 371.47412109 C363.4302002 370.32766113 363.21831055 369.18120117 363 368 C362.73639949 365.74720695 362.48245946 363.49326213 362.23828125 361.23828125 C355.78388474 311.53978411 341.52618922 266.1763492 306.30273438 229.36572266 C305.24710557 228.25905333 304.20703086 227.13756134 303.171875 226.01171875 C277.62046269 198.97625977 240.1204492 187.57245921 205.9609375 175.8671875 C75.79152646 131.24600548 75.79152646 131.24600548 36 89.9375 C34.22468387 87.76806826 34.22468387 87.76806826 32 88 C31.75636719 87.42765625 31.51273438 86.8553125 31.26171875 86.265625 C29.77482702 83.59566462 28.01916092 81.86170993 25.8125 79.75 C22.19608128 76.22660813 18.83680674 72.60416809 15.60546875 68.7265625 C13.88634691 66.87777453 12.0577016 65.45512087 10 64 C19.29528357 100.03028965 45.32805614 127.60655799 76.85546875 146.3203125 C96.39460935 157.65081488 115.5278732 165.02468074 138 168 C136.83214843 169.55713542 135.66423733 171.11422621 134.49609375 172.67114258 C133.43656677 174.08434312 132.37800795 175.49826994 131.3203125 176.9128418 C128.3304762 180.90831126 125.32376506 184.88912351 122.28515625 188.84765625 C102.92784495 214.15334719 86.6677554 241.88207473 76 272 C75.61005859 273.08265137 75.22011719 274.16530273 74.81835938 275.28076172 C66.03632306 299.86304385 59.16577545 325.02456513 56 351 C55.9071875 351.68852051 55.814375 352.37704102 55.71875 353.08642578 C54.67256905 361.81269582 54.75626394 370.59901472 54.75 379.375 C54.74932526 380.22381744 54.74865051 381.07263489 54.74795532 381.94717407 C54.76384033 394.52379277 55.15113486 406.69808233 58 419 C58.26538574 420.18166748 58.26538574 420.18166748 58.53613281 421.38720703 C66.49951662 456.03961722 83.62392399 485.37575143 108 511 C108.6909375 511.75539063 109.381875 512.51078125 110.09375 513.2890625 C132.56887515 537.06082948 164.56751712 552.97092951 192.63317871 568.93774414 C212.12721525 580.03046059 231.57542777 591.17865711 250 604 C250.62116699 604.42974121 251.24233398 604.85948242 251.88232422 605.30224609 C260.85349214 611.52923582 269.52905791 618.10874846 278 625 C278.56686523 625.46100098 279.13373047 625.92200195 279.71777344 626.39697266 C293.39523398 637.61280239 306.22240037 649.94630791 317 664 C318.01356488 665.28575417 319.02795096 666.57086124 320.04296875 667.85546875 C341.683829 695.45205803 366.64753493 732.57993946 371 768 C374.32428592 767.27532154 374.32428592 767.27532154 375.69140625 763.80859375 C376.3263723 762.35643767 376.94909123 760.89889277 377.5625 759.4375 C377.90619629 758.644646 378.24989258 757.85179199 378.60400391 757.03491211 C380.59022804 752.42356026 382.50206489 747.78330963 384.39453125 743.1328125 C398.31651837 708.97750058 417.79808155 678.8087007 442.6796875 651.54296875 C444.30167652 649.76533432 445.91000455 647.97518179 447.5078125 646.17578125 C451.75834328 641.41180715 456.00972188 636.89380689 460.90234375 632.7890625 C463.34421703 630.70642198 465.66030407 628.50923389 468 626.3125 C495.96897021 600.94174014 530.99515093 582.66227203 563.59619141 563.95507812 C588.40596407 549.93153978 588.40596407 549.93153978 612 534 C612.59232422 533.56026855 613.18464844 533.12053711 613.79492188 532.66748047 C622.71158607 525.98958045 630.95943597 518.70153814 639 511 C639.75023437 510.29101562 640.50046875 509.58203125 641.2734375 508.8515625 C646.66957163 503.62605712 651.38269876 497.91731809 656 492 C656.6482373 491.17435547 656.6482373 491.17435547 657.30957031 490.33203125 C681.36508526 459.46049801 693.48235932 422.40539047 693.375 383.3125 C693.37445618 382.55676697 693.37391235 381.80103394 693.37335205 381.0223999 C693.32450478 366.09506559 691.75072513 351.6809298 689 337 C688.78037598 335.80681152 688.56075195 334.61362305 688.33447266 333.38427734 C681.64553121 297.65785051 670.27647139 265.46146981 654 233 C653.39889404 231.7939209 653.39889404 231.7939209 652.78564453 230.56347656 C645.47829579 215.99950253 637.08697817 201.92925302 627.0625 189.0625 C626.40822021 188.22102417 626.40822021 188.22102417 625.74072266 187.36254883 C623.11617888 184.09778616 620.31489296 181.54332305 617 179 C614.73154064 175.75934378 614.57612959 172.89960776 615 169 C618.14917634 166.90054911 619.35751788 166.71089648 623 166.3125 C652.74128601 161.65983191 681.38647637 143.09987295 703 123 C704.00160156 122.09701172 704.00160156 122.09701172 705.0234375 121.17578125 C721.3394519 105.82540852 736.1312937 81.44762679 739 59 C738.67 59 738.34 59 738 59 Z M371.93359375 416.78125 C367.25915132 421.53079824 363.70178939 426.94146385 360.0625 432.5 C359.35955811 433.56863281 358.65661621 434.63726563 357.93237305 435.73828125 C345.95419328 454.12733737 334.67382058 474.0600688 339.15234375 496.80859375 C344.54327919 517.10534146 357.93845648 540.22263655 373 555 C373.99 555 374.98 555 376 555 C378.07942653 552.584099 378.07942653 552.584099 380.1328125 549.40234375 C380.52640961 548.82123337 380.92000671 548.24012299 381.32553101 547.6414032 C382.60339704 545.74745635 383.86512646 543.8434549 385.125 541.9375 C385.99132988 540.63772036 386.85786634 539.33807839 387.72460938 538.03857422 C389.80662887 534.9083024 391.87241722 531.76769038 393.93273926 528.62310791 C394.85541894 527.21988128 395.78767271 525.82295873 396.72167969 524.42724609 C407.94873165 507.63277514 409.19592043 488.81958262 406 469.1875 C401.85305846 451.58688637 390.20782786 434.80912639 379.24023438 420.7265625 C377.7231598 418.61460356 376.77427042 416.47766536 376 414 C374.19586995 414 373.17602757 415.58387671 371.93359375 416.78125 Z " fill="#FFFFFF" transform="translate(116,80)"/>
<path d="M0 0 C0.96421875 0.53238281 1.9284375 1.06476563 2.921875 1.61328125 C28.53771519 16.8842629 49.0119438 42.9016665 56.96875 71.6875 C65.25038942 104.63002125 62.52754798 142.45184064 45.15625 172.15234375 C40.60538295 179.16826379 35.48315751 185.69185365 30 192 C29.20916016 192.91845703 29.20916016 192.91845703 28.40234375 193.85546875 C13.11561583 210.31509139 -13.92826399 226.43244218 -36.58293152 228.20172119 C-39.40195538 228.29503184 -42.21459424 228.32950009 -45.03515625 228.3359375 C-46.59054359 228.3459227 -46.59054359 228.3459227 -48.17735291 228.35610962 C-50.36325319 228.36618653 -52.54918393 228.37092819 -54.73510742 228.37060547 C-58.02901816 228.37495578 -61.321562 228.41126697 -64.61523438 228.44921875 C-81.00241773 228.53957089 -94.84106556 226.7437724 -109.6875 219.3125 C-110.57832275 218.87534668 -111.46914551 218.43819336 -112.38696289 217.98779297 C-119.77823854 214.27706817 -126.49041616 210.1307888 -133 205 C-133.5676709 204.55430664 -134.1353418 204.10861328 -134.72021484 203.64941406 C-147.79910611 193.26187273 -157.82504502 181.61746917 -166 167 C-166.79857422 165.58847656 -166.79857422 165.58847656 -167.61328125 164.1484375 C-183.07207985 135.14821067 -184.43404601 102.05549007 -175.5390625 70.83984375 C-166.17388822 40.13465772 -146.04351782 14.52548459 -117.98730469 -1.12255859 C-106.84769547 -7.04131482 -95.16633649 -10.80215457 -83 -14 C-82.33307129 -14.17934082 -81.66614258 -14.35868164 -80.97900391 -14.54345703 C-53.7703359 -21.71412667 -24.03393694 -13.31161424 0 0 Z M-130.31640625 42.0390625 C-150.31362271 64.10294907 -153.97237912 88.33642427 -153 117 C-151.25751142 145.01029341 -139.78901395 164.45953222 -119 183 C-97.97183104 200.83233114 -74.02230295 205.21398033 -47 204 C-24.60400061 202.14040438 -2.72739263 190.57184711 11.984375 173.671875 C27.91292613 154.47349352 35.66394573 133.66148522 35.4375 108.6875 C35.43243942 107.60107712 35.43243942 107.60107712 35.42727661 106.4927063 C35.35339708 95.53602372 34.7730809 85.39271692 31 75 C30.75862305 74.33307129 30.51724609 73.66614258 30.26855469 72.97900391 C22.1711956 51.23835865 7.1161533 34.31110304 -13 23 C-14.09699219 22.36449219 -15.19398438 21.72898437 -16.32421875 21.07421875 C-55.15201159 0.01431253 -100.59366559 10.85826231 -130.31640625 42.0390625 Z " fill="#FFFFFF" transform="translate(384,327)"/>
<path d="M0 0 C2.7813907 2.21949359 5.43754417 4.52936446 8.08203125 6.91015625 C9.14180704 7.8373768 10.2017082 8.76445408 11.26171875 9.69140625 C34.51635528 30.30799834 49.64389289 55.87884494 54.08203125 86.91015625 C54.96648074 104.02333896 55.35694437 121.46280419 50.08203125 137.91015625 C49.71980469 139.10511719 49.35757813 140.30007813 48.984375 141.53125 C38.13778755 174.51222946 15.04030117 199.95588517 -15.609375 215.8515625 C-27.71507935 221.86059243 -39.28528939 224.3832816 -52.83203125 224.30859375 C-54.00833099 224.31146393 -55.18463074 224.31433411 -56.39657593 224.31729126 C-58.86204515 224.31931668 -61.32753102 224.31389454 -63.79296875 224.30126953 C-67.54073324 224.28516586 -71.28742423 224.30118641 -75.03515625 224.3203125 C-77.44661693 224.31833036 -79.85807695 224.3144873 -82.26953125 224.30859375 C-83.37503326 224.31466644 -84.48053528 224.32073914 -85.61953735 224.32699585 C-96.46589114 224.23008245 -105.66183723 221.4386146 -115.35546875 216.72265625 C-116.1745874 216.32828369 -116.99370605 215.93391113 -117.83764648 215.52758789 C-124.62634562 212.18906974 -130.83547933 208.42883673 -136.91796875 203.91015625 C-137.72878906 203.32105469 -138.53960938 202.73195313 -139.375 202.125 C-162.22446232 184.73873707 -182.12358042 158.29740571 -186.45556641 129.31323242 C-187.03045094 124.49355734 -187.11612586 119.69734366 -187.15625 114.84765625 C-187.16432175 113.89810059 -187.17239349 112.94854492 -187.18070984 111.97021484 C-187.19447632 109.96665226 -187.20523136 107.96306695 -187.21313477 105.95947266 C-187.22460974 103.94084641 -187.24498971 101.92224942 -187.2746582 99.90380859 C-187.52026603 83.14484772 -186.00890441 68.77400965 -178.41796875 53.53515625 C-177.9892749 52.65867432 -177.56058105 51.78219238 -177.11889648 50.87915039 C-170.00609853 36.73138062 -161.19042661 24.03621855 -149.91796875 12.91015625 C-149.03496094 12.0284375 -148.15195312 11.14671875 -147.2421875 10.23828125 C-131.41328698 -4.88049494 -111.72857919 -12.63174704 -90.91796875 -18.08984375 C-90.2317041 -18.27063477 -89.54543945 -18.45142578 -88.83837891 -18.63769531 C-59.79851642 -26.02058681 -24.25785749 -17.37343207 0 0 Z M-133.91796875 33.91015625 C-134.62566406 34.56757813 -135.33335937 35.225 -136.0625 35.90234375 C-153.416334 52.42664457 -162.52798333 76.59867036 -163.20361328 100.26928711 C-163.53899512 128.56636769 -154.55827141 151.47445193 -134.91796875 171.91015625 C-116.57245563 189.97604923 -91.03171198 200.86473394 -65.25 201 C-43.23428295 200.5427487 -21.71500501 192.07351086 -4.91796875 177.91015625 C-4.11617187 177.265625 -3.314375 176.62109375 -2.48828125 175.95703125 C16.0915896 160.3291025 27.79569256 134.88581601 30.08203125 110.91015625 C31.11295731 98.76194647 28.73416952 88.40735914 25.08203125 76.91015625 C24.85741211 76.19649902 24.63279297 75.4828418 24.40136719 74.74755859 C15.61287272 47.55695453 -2.57089603 27.89170454 -27.85546875 14.72265625 C-64.22135331 -2.8737395 -105.50080919 6.23690139 -133.91796875 33.91015625 Z " fill="#FFFFFF" transform="translate(721.91796875,331.08984375)"/>
<path d="M0 0 C1.12664062 0.06960938 2.25328125 0.13921875 3.4140625 0.2109375 C17.1936282 1.56187531 26.68029838 9.11546798 36 19 C46.1267772 31.70944521 50.00676583 44.87344184 49 61 C46.52111728 76.79067814 38.36830212 88.93753652 25.59765625 98.46484375 C12.19261715 106.38691949 -5.80540451 108.64140737 -20.9375 104.875 C-35.91329834 99.91412123 -46.31893364 92.22722613 -53.48046875 78.07421875 C-60.16762145 62.9545861 -60.75658695 48.34519906 -54.8125 32.9375 C-48.55420366 18.68755994 -37.04384317 9.22341468 -23 3 C-15.34396695 0.29108994 -8.07438387 -0.58447283 0 0 Z " fill="#FFFFFF" transform="translate(330,381)"/>
<path d="M0 0 C10.23538338 8.87469725 15.50822339 18.21600178 17.20703125 31.85546875 C18.19144803 49.69317835 16.77807215 64.99539688 5.51953125 79.60546875 C-3.47393401 89.37180993 -16.9897749 94.51941521 -30.04296875 95.09375 C-46.91696777 95.48934523 -60.81020693 92.38836398 -73.60546875 80.54296875 C-84.91232861 68.31641215 -87.65202603 53.66947365 -87.109375 37.5703125 C-86.33367183 23.57707213 -81.02622151 11.91777799 -70.84765625 2.21875 C-50.15495858 -13.79030638 -21.37884733 -16.41536669 0 0 Z " fill="#FFFFFF" transform="translate(689.79296875,392.14453125)"/>
</svg>
