<?xml version="1.0" standalone="no"?>
<!DOCTYPE svg PUBLIC "-//W3C//DTD SVG 20010904//EN"
 "http://www.w3.org/TR/2001/REC-SVG-20010904/DTD/svg10.dtd">
<svg version="1.0" xmlns="http://www.w3.org/2000/svg"
 width="300.000000pt" height="286.000000pt" viewBox="0 0 300.000000 286.000000"
 preserveAspectRatio="xMidYMid meet">
<metadata>
Created by potrace 1.10, written by Peter Selinger 2001-2011
</metadata>
<g transform="translate(0.000000,286.000000) scale(0.100000,-0.100000)"
fill="#000000" stroke="none">
<path d="M309 2668 c-20 -37 -17 -232 5 -303 21 -70 58 -146 80 -164 24 -20
19 -32 -10 -21 -36 14 -44 13 -44 -10 0 -36 32 -87 70 -111 l37 -23 -43 -91
c-227 -480 -127 -1072 243 -1433 198 -193 447 -307 728 -334 103 -10 137 -9
238 6 406 58 732 289 912 646 88 176 128 352 128 575 -1 214 -38 381 -127 566
l-32 65 38 24 c23 15 46 41 58 68 26 54 17 70 -29 54 -17 -6 -31 -9 -31 -7 0
2 14 25 31 50 68 100 102 262 82 381 -7 37 -17 72 -23 78 -7 7 -32 -1 -88 -31
-133 -70 -285 -112 -487 -134 -110 -12 -110 -12 -205 19 -237 76 -516 74 -754
-5 -78 -25 -81 -26 -193 -14 -195 21 -396 79 -494 141 -55 36 -74 37 -90 8z
m2242 -207 c-27 -73 -86 -146 -154 -191 -59 -40 -153 -80 -187 -80 -24 0 -26
-23 -4 -41 46 -38 133 -197 173 -316 25 -74 51 -219 51 -282 0 -157 -53 -284
-164 -394 -58 -58 -103 -89 -230 -161 -87 -49 -194 -115 -237 -148 -131 -99
-248 -252 -301 -395 -24 -64 -38 -87 -38 -60 0 28 -48 136 -92 207 -97 155
-207 251 -438 380 -171 96 -238 145 -298 220 -137 170 -158 382 -64 654 34 98
83 189 147 271 l46 60 -43 7 c-65 12 -162 63 -223 120 -61 56 -88 94 -110 159
l-16 43 57 -63 c105 -116 227 -182 517 -280 204 -69 251 -94 329 -173 90 -91
145 -223 163 -393 l7 -60 -59 -90 c-79 -120 -82 -124 -89 -188 -10 -87 9 -144
87 -257 38 -55 75 -100 83 -100 21 0 63 52 141 176 38 62 52 141 36 206 -12
46 -87 181 -129 230 -29 34 4 222 58 334 78 163 169 229 437 319 103 34 215
75 248 91 125 58 237 147 291 228 25 39 27 25 5 -33z m-1071 -1020 c0 -5 6
-16 13 -23 7 -7 27 -38 45 -69 27 -47 32 -67 32 -121 0 -56 -4 -70 -32 -113
-18 -26 -40 -59 -48 -71 -8 -13 -17 -24 -20 -24 -3 0 -27 32 -52 70 -76 114
-75 174 3 293 41 62 59 80 59 58z"/>
<path d="M895 1986 c-130 -32 -222 -117 -264 -243 -61 -180 22 -369 197 -451
49 -23 70 -27 147 -27 82 0 97 3 157 33 131 64 201 179 201 327 0 103 -27 176
-93 248 -58 64 -125 102 -204 116 -71 13 -76 13 -141 -3z m203 -97 c103 -51
162 -144 162 -258 0 -83 -14 -128 -59 -187 -53 -71 -132 -109 -225 -109 -84 0
-141 24 -203 85 -58 56 -77 101 -81 196 -3 71 -1 88 22 137 70 147 241 208
384 136z"/>
<path d="M926 1776 c-83 -31 -127 -110 -105 -192 20 -72 77 -114 154 -114 151
0 216 174 103 275 -21 19 -46 35 -56 35 -9 0 -26 2 -37 5 -11 3 -37 -2 -59 -9z"/>
<path d="M1885 1986 c-114 -28 -193 -93 -248 -205 -28 -58 -32 -73 -31 -155 0
-77 4 -100 26 -148 35 -75 94 -138 170 -179 60 -32 68 -34 163 -34 90 0 106 3
155 28 187 96 261 316 168 501 -28 56 -105 134 -158 161 -46 23 -134 46 -173
44 -12 0 -44 -6 -72 -13z m192 -90 c82 -39 135 -98 163 -185 21 -66 22 -79 12
-134 -22 -115 -99 -201 -210 -233 -109 -32 -234 12 -311 110 -39 49 -56 104
-55 181 2 204 219 345 401 261z"/>
<path d="M1917 1776 c-73 -27 -107 -76 -107 -153 0 -90 63 -153 153 -153 96 0
157 60 157 154 0 67 -20 108 -65 136 -43 26 -94 32 -138 16z"/>
</g>
</svg>
